<svg xmlns="http://www.w3.org/2000/svg" width="26.5" height="32.859" viewBox="0 0 26.5 32.859">
  <g id="bag" transform="translate(-48.3 0.5)">
    <path id="Path_4" data-name="Path 4" d="M74.294,27.539,72.469,7a.878.878,0,0,0-.873-.8H67.844a6.294,6.294,0,0,0-12.587,0H51.5a.873.873,0,0,0-.873.8L48.807,27.539c0,.026-.007.052-.007.078a4.54,4.54,0,0,0,4.782,4.241H69.518A4.54,4.54,0,0,0,74.3,27.617.317.317,0,0,0,74.294,27.539ZM61.55,1.759A4.539,4.539,0,0,1,66.085,6.2H57.016A4.539,4.539,0,0,1,61.55,1.759ZM69.518,30.1H53.582a2.807,2.807,0,0,1-3.023-2.443l1.746-19.7H55.25v2.671a.88.88,0,1,0,1.759,0V7.961h9.076v2.671a.88.88,0,1,0,1.759,0V7.961h2.945l1.753,19.7A2.811,2.811,0,0,1,69.518,30.1Z" transform="translate(0 0)" fill="#031d42" stroke="#031d42" stroke-width="1"/>
  </g>
</svg>
