<svg xmlns="http://www.w3.org/2000/svg" width="34" height="27.376" viewBox="0 0 34 27.376">
  <g id="Group_82" data-name="Group 82" transform="translate(-1705 -122.624)">
    <path id="Path_9" data-name="Path 9" d="M26.859-22.482A8.826,8.826,0,0,0,15-21.6a8.82,8.82,0,0,0-11.859-.879A8.865,8.865,0,0,0,2.52-9.521L12.8.949a3.072,3.072,0,0,0,2.2.932A3.056,3.056,0,0,0,17.2.955L27.48-9.516A8.872,8.872,0,0,0,26.859-22.482ZM25.476-11.5,15.2-1.025a.241.241,0,0,1-.4,0L4.523-11.5a6.043,6.043,0,0,1,.428-8.83,5.941,5.941,0,0,1,8,.615L15-17.619l2.051-2.092a5.937,5.937,0,0,1,8-.621A6.068,6.068,0,0,1,25.476-11.5Z" transform="translate(1705 147)" fill="#031d42"/>
    <circle id="Ellipse_6" data-name="Ellipse 6" cx="9" cy="9" r="9" transform="translate(1721 132)" fill="#042a6d"/>
  </g>
</svg>
